<mxfile host="Electron" modified="2024-05-10T15:17:32.963Z" agent="Mozilla/5.0 (Windows NT 10.0; Win64; x64) AppleWebKit/537.36 (KHTML, like Gecko) draw.io/24.2.5 Chrome/120.0.6099.109 Electron/28.1.0 Safari/537.36" etag="YXrI26ZF0PT-d79JKD3k" version="24.2.5" type="device">
  <diagram name="PaymentSystem" id="sRVEVxawfdWNmuoNN99o">
    <mxGraphModel dx="15080" dy="6866" grid="0" gridSize="10" guides="1" tooltips="1" connect="1" arrows="1" fold="1" page="0" pageScale="1" pageWidth="827" pageHeight="1169" math="0" shadow="0">
      <root>
        <mxCell id="0" />
        <mxCell id="1" parent="0" />
        <mxCell id="gxGCP2PPDhguCthA1r52-2" value="&lt;span style=&quot;color: rgba(0, 0, 0, 0); font-family: monospace; font-size: 0px; font-style: normal; font-weight: normal; letter-spacing: normal; text-indent: 0px; text-transform: none; word-spacing: 0px; background-color: rgb(255, 255, 255); text-decoration: none; display: inline; float: none;&quot;&gt;%3CmxGraphModel%3E%3Croot%3E%3CmxCell%20id%3D%220%22%2F%3E%3CmxCell%20id%3D%221%22%20parent%3D%220%22%2F%3E%3CmxCell%20id%3D%222%22%20value%3D%22%22%20style%3D%22rounded%3D1%3BwhiteSpace%3Dwrap%3Bhtml%3D1%3Bdashed%3D1%3BarcSize%3D2%3BstrokeColor%3Dnone%3BfillColor%3D%23F5F5F5%3B%22%20vertex%3D%221%22%20parent%3D%221%22%3E%3CmxGeometry%20x%3D%22-2657%22%20y%3D%22-3908%22%20width%3D%221526%22%20height%3D%221061%22%20as%3D%22geometry%22%2F%3E%3C%2FmxCell%3E%3CmxCell%20id%3D%223%22%20value%3D%22%22%20style%3D%22rounded%3D1%3BwhiteSpace%3Dwrap%3Bhtml%3D1%3BarcSize%3D3%3BfontFamily%3DVerdana%3BfontSize%3D39%3BstrokeWidth%3D10%3BperimeterSpacing%3D5%3Bshadow%3D0%3BstrokeColor%3Dnone%3BfillColor%3D%23d6b6f0%3B%22%20vertex%3D%221%22%20parent%3D%221%22%3E%3CmxGeometry%20x%3D%22-1949%22%20y%3D%22-3696%22%20width%3D%22653%22%20height%3D%22850%22%20as%3D%22geometry%22%2F%3E%3C%2FmxCell%3E%3CmxCell%20id%3D%224%22%20value%3D%22%22%20style%3D%22rounded%3D1%3BwhiteSpace%3Dwrap%3Bhtml%3D1%3BarcSize%3D10%3BstrokeColor%3Dnone%3Bdashed%3D1%3BfontFamily%3DVerdana%3BfontSize%3D39%3BfontColor%3D%23FFFFFF%3Balign%3Dright%3BfillColor%3D%23EEF9F7%3B%22%20vertex%3D%221%22%20parent%3D%221%22%3E%3CmxGeometry%20x%3D%22-2657%22%20y%3D%22-3908%22%20width%3D%22761%22%20height%3D%22135%22%20as%3D%22geometry%22%2F%3E%3C%2FmxCell%3E%3CmxCell%20id%3D%225%22%20value%3D%22%22%20style%3D%22rounded%3D1%3BwhiteSpace%3Dwrap%3Bhtml%3D1%3BarcSize%3D4%3BfontFamily%3DVerdana%3BfontSize%3D10%3Balign%3Dcenter%3BfontStyle%3D0%3BlabelPosition%3Dcenter%3BverticalLabelPosition%3Dbottom%3BverticalAlign%3Dtop%3BlabelBackgroundColor%3D%23ffffff%3BstrokeWidth%3D2%3BfontColor%3D%23238059%3Bdashed%3D1%3BstrokeColor%3Dnone%3BfillColor%3D%23EEF9F7%3B%22%20vertex%3D%221%22%20parent%3D%221%22%3E%3CmxGeometry%20x%3D%22-2657%22%20y%3D%22-3427%22%20width%3D%22591%22%20height%3D%22581%22%20as%3D%22geometry%22%2F%3E%3C%2FmxCell%3E%3CmxCell%20id%3D%226%22%20style%3D%22edgeStyle%3DorthogonalEdgeStyle%3Brounded%3D1%3BorthogonalLoop%3D1%3BjettySize%3Dauto%3Bhtml%3D1%3BstrokeColor%3D%2338CD8F%3BstrokeWidth%3D2%3BjumpStyle%3Darc%3BentryX%3D0.5%3BentryY%3D1%3BentryDx%3D0%3BentryDy%3D0%3B%22%20edge%3D%221%22%20target%3D%2271%22%20parent%3D%221%22%3E%3CmxGeometry%20relative%3D%221%22%20as%3D%22geometry%22%3E%3CArray%20as%3D%22points%22%3E%3CmxPoint%20x%3D%22-2321%22%20y%3D%22-2858%22%2F%3E%3C%2FArray%3E%3CmxPoint%20x%3D%22-2329%22%20y%3D%22-2858%22%20as%3D%22sourcePoint%22%2F%3E%3CmxPoint%20x%3D%22-2321%22%20y%3D%22-2964%22%20as%3D%22targetPoint%22%2F%3E%3C%2FmxGeometry%3E%3C%2FmxCell%3E%3CmxCell%20id%3D%227%22%20style%3D%22edgeStyle%3DorthogonalEdgeStyle%3Brounded%3D1%3BorthogonalLoop%3D1%3BjettySize%3Dauto%3Bhtml%3D1%3BstrokeWidth%3D2%3BendArrow%3Dblock%3BendFill%3D1%3BjumpStyle%3Darc%3BstrokeColor%3D%23685BFF%3BexitX%3D0.5%3BexitY%3D1%3BexitDx%3D0%3BexitDy%3D0%3BentryX%3D0.5%3BentryY%3D0%3BentryDx%3D0%3BentryDy%3D0%3B%22%20edge%3D%221%22%20target%3D%2258%22%20parent%3D%221%22%3E%3CmxGeometry%20relative%3D%221%22%20as%3D%22geometry%22%3E%3CmxPoint%20x%3D%22-2153%22%20y%3D%22-3638%22%20as%3D%22targetPoint%22%2F%3E%3CArray%20as%3D%22points%22%3E%3CmxPoint%20x%3D%22-2448%22%20y%3D%22-3811%22%2F%3E%3CmxPoint%20x%3D%22-2448%22%20y%3D%22-3761%22%2F%3E%3CmxPoint%20x%3D%22-2157%22%20y%3D%22-3761%22%2F%3E%3C%2FArray%3E%3CmxPoint%20x%3D%22-2449%22%20y%3D%22-3811%22%20as%3D%22sourcePoint%22%2F%3E%3C%2FmxGeometry%3E%3C%2FmxCell%3E%3CmxCell%20id%3D%228%22%20style%3D%22edgeStyle%3DorthogonalEdgeStyle%3Brounded%3D1%3BorthogonalLoop%3D1%3BjettySize%3Dauto%3Bhtml%3D1%3BentryX%3D0.5%3BentryY%3D0%3BentryDx%3D0%3BentryDy%3D0%3BstrokeWidth%3D2%3BendArrow%3Dblock%3BendFill%3D1%3BjumpStyle%3Darc%3BstrokeColor%3D%23685BFF%3BexitX%3D1%3BexitY%3D0.5%3BexitDx%3D0%3BexitDy%3D0%3B%22%20edge%3D%221%22%20source%3D%2291%22%20target%3D%2232%22%20parent%3D%221%22%3E%3CmxGeometry%20relative%3D%221%22%20as%3D%22geometry%22%3E%3CmxPoint%20x%3D%22-2151%22%20y%3D%22-3530.1800000000003%22%20as%3D%22targetPoint%22%2F%3E%3CArray%20as%3D%22points%22%3E%3CmxPoint%20x%3D%22-2201%22%20y%3D%22-3635%22%2F%3E%3CmxPoint%20x%3D%22-2201%22%20y%3D%22-3676%22%2F%3E%3CmxPoint%20x%3D%22-1836%22%20y%3D%22-3676%22%2F%3E%3C%2FArray%3E%3CmxPoint%20x%3D%22-2439%22%20y%3D%22-3801%22%20as%3D%22sourcePoint%22%2F%3E%3C%2FmxGeometry%3E%3C%2FmxCell%3E%3CmxCell%20id%3D%229%22%20style%3D%22edgeStyle%3DorthogonalEdgeStyle%3Brounded%3D1%3BorthogonalLoop%3D1%3BjettySize%3Dauto%3Bhtml%3D1%3BentryX%3D0%3BentryY%3D0.5%3BentryDx%3D0%3BentryDy%3D0%3BstrokeWidth%3D2%3BendArrow%3Dblock%3BendFill%3D1%3BjumpStyle%3Darc%3BstrokeColor%3D%23685BFF%3B%22%20edge%3D%221%22%20parent%3D%221%22%3E%3CmxGeometry%20relative%3D%221%22%20as%3D%22geometry%22%3E%3CmxPoint%20x%3D%22-2210.005%22%20y%3D%22-3005%22%20as%3D%22targetPoint%22%2F%3E%3CArray%20as%3D%22points%22%3E%3CmxPoint%20x%3D%22-2237%22%20y%3D%22-3435%22%2F%3E%3CmxPoint%20x%3D%22-2237%22%20y%3D%22-3005%22%2F%3E%3C%2FArray%3E%3CmxPoint%20x%3D%22-2575%22%20y%3D%22-3435%22%20as%3D%22sourcePoint%22%2F%3E%3C%2FmxGeometry%3E%3C%2FmxCell%3E%3CmxCell%20id%3D%2210%22%20style%3D%22rounded%3D1%3BorthogonalLoop%3D1%3BjettySize%3Dauto%3Bhtml%3D1%3BlabelBackgroundColor%3D%23EEF9F7%3BendArrow%3Dblock%3BendFill%3D1%3BstrokeWidth%3D2%3BfontFamily%3DVerdana%3BfontSize%3D20%3BfontColor%3D%23FFFFFF%3BedgeStyle%3DorthogonalEdgeStyle%3BjumpStyle%3Darc%3BentryX%3D0%3BentryY%3D0.5%3BentryDx%3D0%3BentryDy%3D0%3BstrokeColor%3D%23685BFF%3B%22%20edge%3D%221%22%20target%3D%2231%22%20parent%3D%221%22%3E%3CmxGeometry%20relative%3D%221%22%20as%3D%22geometry%22%3E%3CmxPoint%20x%3D%22-2212%22%20y%3D%22-3263.0000000000005%22%20as%3D%22targetPoint%22%2F%3E%3CArray%20as%3D%22points%22%3E%3CmxPoint%20x%3D%22-2291%22%20y%3D%22-3263%22%2F%3E%3C%2FArray%3E%3CmxPoint%20x%3D%22-2291%22%20y%3D%22-3304%22%20as%3D%22sourcePoint%22%2F%3E%3C%2FmxGeometry%3E%3C%2FmxCell%3E%3CmxCell%20id%3D%2211%22%20style%3D%22edgeStyle%3DorthogonalEdgeStyle%3Brounded%3D1%3BjumpStyle%3Darc%3BorthogonalLoop%3D1%3BjettySize%3Dauto%3Bhtml%3D1%3BexitX%3D0.25%3BexitY%3D1%3BexitDx%3D0%3BexitDy%3D0%3BendArrow%3Dnone%3BendFill%3D0%3BstrokeColor%3D%2338CD8F%3BstrokeWidth%3D2%3B%22%20edge%3D%221%22%20source%3D%2256%22%20parent%3D%221%22%3E%3CmxGeometry%20relative%3D%221%22%20as%3D%22geometry%22%3E%3CmxPoint%20x%3D%22-2351%22%20y%3D%22-3137%22%20as%3D%22targetPoint%22%2F%3E%3C%2FmxGeometry%3E%3C%2FmxCell%3E%3CmxCell%20id%3D%2212%22%20value%3D%22%22%20style%3D%22edgeStyle%3DorthogonalEdgeStyle%3Brounded%3D1%3BorthogonalLoop%3D1%3BjettySize%3Dauto%3Bhtml%3D1%3BentryX%3D1%3BentryY%3D0.5%3BentryDx%3D0%3BentryDy%3D0%3BfillColor%3D%23f8cecc%3BexitX%3D0.5%3BexitY%3D1%3BexitDx%3D0%3BexitDy%3D0%3BendArrow%3Dblock%3BendFill%3D1%3BstrokeWidth%3D2%3BstrokeColor%3D%23685BFF%3BjumpStyle%3Darc%3B%22%20edge%3D%221%22%20source%3D%2281%22%20target%3D%2220%22%20parent%3D%221%22%3E%3CmxGeometry%20width%3D%2250%22%20height%3D%2250%22%20relative%3D%221%22%20as%3D%22geometry%22%3E%3CmxPoint%20x%3D%22-1853%22%20y%3D%22-3446%22%20as%3D%22sourcePoint%22%2F%3E%3CmxPoint%20x%3D%22-1803%22%20y%3D%22-3496%22%20as%3D%22targetPoint%22%2F%3E%3CArray%20as%3D%22points%22%3E%3CmxPoint%20x%3D%22-1644%22%20y%3D%22-3498%22%2F%3E%3C%2FArray%3E%3C%2FmxGeometry%3E%3C%2FmxCell%3E%3CmxCell%20id%3D%2213%22%20value%3D%22Keycloak%26amp%3Bnbsp%3BUI%22%20style%3D%22shape%3Dext%3Brounded%3D1%3Bhtml%3D1%3BwhiteSpace%3Dwrap%3BstrokeColor%3Dnone%3BfontFamily%3DVerdana%3BfontColor%3D%23FFFFFF%3BfontStyle%3D1%3BfillColor%3D%23A3A9FF%3B%22%20vertex%3D%221%22%20parent%3D%221%22%3E%3CmxGeometry%20x%3D%22-2318%22%20y%3D%22-3888%22%20width%3D%22120%22%20height%3D%2280%22%20as%3D%22geometry%22%2F%3E%3C%2FmxCell%3E%3CmxCell%20id%3D%2214%22%20value%3D%22%22%20style%3D%22endArrow%3Dblock%3Bhtml%3D1%3BstrokeWidth%3D2%3BjumpSize%3D4%3BendFill%3D1%3BendSize%3D6%3BstartSize%3D6%3BstrokeColor%3D%23685BFF%3B%22%20edge%3D%221%22%20source%3D%2223%22%20target%3D%2213%22%20parent%3D%221%22%3E%3CmxGeometry%20width%3D%2250%22%20height%3D%2250%22%20relative%3D%221%22%20as%3D%22geometry%22%3E%3CmxPoint%20x%3D%22-2360%22%20y%3D%22-3668%22%20as%3D%22sourcePoint%22%2F%3E%3CmxPoint%20x%3D%22-2310%22%20y%3D%22-3718%22%20as%3D%22targetPoint%22%2F%3E%3C%2FmxGeometry%3E%3C%2FmxCell%3E%3CmxCell%20id%3D%2215%22%20value%3D%22%22%20style%3D%22endArrow%3Dblock%3Bhtml%3D1%3BstrokeWidth%3D2%3BjumpSize%3D4%3BendFill%3D1%3BendSize%3D6%3BstartSize%3D6%3BstrokeColor%3D%23685BFF%3B%22%20edge%3D%221%22%20source%3D%2213%22%20target%3D%2220%22%20parent%3D%221%22%3E%3CmxGeometry%20width%3D%2250%22%20height%3D%2250%22%20relative%3D%221%22%20as%3D%22geometry%22%3E%3CmxPoint%20x%3D%22-2360%22%20y%3D%22-3668%22%20as%3D%22sourcePoint%22%2F%3E%3CmxPoint%20x%3D%22-2310%22%20y%3D%22-3718%22%20as%3D%22targetPoint%22%2F%3E%3CArray%20as%3D%22points%22%3E%3CmxPoint%20x%3D%22-2258%22%20y%3D%22-3736%22%2F%3E%3CmxPoint%20x%3D%22-2436%22%20y%3D%22-3736%22%2F%3E%3CmxPoint%20x%3D%22-2436%22%20y%3D%22-3572%22%2F%3E%3CmxPoint%20x%3D%22-2405%22%20y%3D%22-3572%22%2F%3E%3C%2FArray%3E%3C%2FmxGeometry%3E%3C%2FmxCell%3E%3CmxCell%20id%3D%2216%22%20value%3D%22%22%20style%3D%22endArrow%3Dblock%3Bhtml%3D1%3BstrokeWidth%3D2%3BjumpSize%3D4%3BendFill%3D1%3BendSize%3D6%3BstartSize%3D6%3BstrokeColor%3D%23685BFF%3B%22%20edge%3D%221%22%20source%3D%2291%22%20target%3D%2220%22%20parent%3D%221%22%3E%3CmxGeometry%20width%3D%2250%22%20height%3D%2250%22%20relative%3D%221%22%20as%3D%22geometry%22%3E%3CmxPoint%20x%3D%22-2360%22%20y%3D%22-3668%22%20as%3D%22sourcePoint%22%2F%3E%3CmxPoint%20x%3D%22-2310%22%20y%3D%22-3718%22%20as%3D%22targetPoint%22%2F%3E%3CArray%20as%3D%22points%22%3E%3CmxPoint%20x%3D%22-2360%22%20y%3D%22-3573%22%2F%3E%3CmxPoint%20x%3D%22-2405%22%20y%3D%22-3573%22%2F%3E%3C%2FArray%3E%3C%2FmxGeometry%3E%3C%2FmxCell%3E%3CmxCell%20id%3D%2217%22%20value%3D%22%22%20style%3D%22edgeStyle%3DorthogonalEdgeStyle%3Brounded%3D1%3BorthogonalLoop%3D1%3BjettySize%3Dauto%3Bhtml%3D1%3BentryX%3D0%3BentryY%3D0.5%3BentryDx%3D0%3BentryDy%3D0%3BfillColor%3D%23f8cecc%3BendArrow%3Dblock%3BendFill%3D1%3BstrokeWidth%3D2%3BstrokeColor%3D%23685BFF%3BjumpStyle%3Darc%3B%22%20edge%3D%221%22%20target%3D%2247%22%20parent%3D%221%22%3E%3CmxGeometry%20width%3D%2250%22%20height%3D%2250%22%20relative%3D%221%22%20as%3D%22geometry%22%3E%3CmxPoint%20x%3D%22-2489%22%20y%3D%22-3502%22%20as%3D%22sourcePoint%22%2F%3E%3CmxPoint%20x%3D%22-2489%22%20y%3D%22-3503%22%20as%3D%22targetPoint%22%2F%3E%3CArray%20as%3D%22points%22%3E%3CmxPoint%20x%3D%22-2237%22%20y%3D%22-3436%22%2F%3E%3CmxPoint%20x%3D%22-2237%22%20y%3D%22-3004%22%2F%3E%3C%2FArray%3E%3C%2FmxGeometry%3E%3C%2FmxCell%3E%3CmxCell%20id%3D%2218%22%20value%3D%22%26lt%3Bh1%20style%3D%26quot%3Bfont-size%3A%2020px%26quot%3B%26gt%3BPCI-DSS%26lt%3Bbr%26gt%3BZone%26lt%3B%2Fh1%26gt%3B%22%20style%3D%22text%3Bhtml%3D1%3BstrokeColor%3Dnone%3BfillColor%3Dnone%3Bspacing%3D5%3BspacingTop%3D-20%3BwhiteSpace%3Dwrap%3Boverflow%3Dhidden%3Brounded%3D0%3Balign%3Dright%3BfontFamily%3DVerdana%3BfontSize%3D20%3BfontColor%3D%234E44BF%3B%22%20vertex%3D%221%22%20parent%3D%221%22%3E%3CmxGeometry%20x%3D%22-1426%22%20y%3D%22-3688%22%20width%3D%22116.5%22%20height%3D%2283%22%20as%3D%22geometry%22%2F%3E%3C%2FmxCell%3E%3CmxCell%20id%3D%2219%22%20style%3D%22edgeStyle%3DorthogonalEdgeStyle%3Brounded%3D1%3BorthogonalLoop%3D1%3BjettySize%3Dauto%3Bhtml%3D1%3BexitX%3D1%3BexitY%3D0.25%3BexitDx%3D0%3BexitDy%3D0%3BentryX%3D0%3BentryY%3D0.5%3BentryDx%3D0%3BentryDy%3D0%3BlabelBackgroundColor%3D%23EEF9F7%3BendArrow%3Dblock%3BendFill%3D1%3BendSize%3D6%3BstrokeColor%3D%23685BFF%3BstrokeWidth%3D2%3BfontFamily%3DVerdana%3BfontSize%3D20%3BfontColor%3D%23FFFFFF%3BjumpStyle%3Darc%3B%22%20edge%3D%221%22%20target%3D%2224%22%20parent%3D%221%22%3E%3CmxGeometry%20relative%3D%221%22%20as%3D%22geometry%22%3E%3CArray%20as%3D%22points%22%3E%3CmxPoint%20x%3D%22-1640%22%20y%3D%22-3093%22%2F%3E%3CmxPoint%20x%3D%22-1640%22%20y%3D%22-2908%22%2F%3E%3C%2FArray%3E%3CmxPoint%20x%3D%22-1784%22%20y%3D%22-3093.18%22%20as%3D%22sourcePoint%22%2F%3E%3C%2FmxGeometry%3E%3C%2FmxCell%3E%3CmxCell%20id%3D%2220%22%20value%3D%22Keycloak%22%20style%3D%22shape%3Dext%3Brounded%3D1%3Bhtml%3D1%3BwhiteSpace%3Dwrap%3BfillColor%3D%23AEEFDC%3BstrokeColor%3Dnone%3BfontFamily%3DVerdana%3BfontStyle%3D1%22%20vertex%3D%221%22%20parent%3D%221%22%3E%3CmxGeometry%20x%3D%22-2465%22%20y%3D%22-3538.1800000000003%22%20width%3D%22120%22%20height%3D%2280%22%20as%3D%22geometry%22%2F%3E%3C%2FmxCell%3E%3CmxCell%20id%3D%2221%22%20style%3D%22edgeStyle%3DorthogonalEdgeStyle%3Brounded%3D1%3BorthogonalLoop%3D1%3BjettySize%3Dauto%3Bhtml%3D1%3BentryX%3D0.5%3BentryY%3D0%3BentryDx%3D0%3BentryDy%3D0%3BfontColor%3D%23000000%3BfillColor%3D%23cce5ff%3BexitX%3D0.5%3BexitY%3D1%3BexitDx%3D0%3BexitDy%3D0%3BstrokeColor%3D%23685BFF%3BstrokeWidth%3D2%3BendArrow%3Dblock%3BendFill%3D1%3BjumpStyle%3Darc%3B%22%20edge%3D%221%22%20source%3D%2223%22%20target%3D%2251%22%20parent%3D%221%22%3E%3CmxGeometry%20relative%3D%221%22%20as%3D%22geometry%22%3E%3CArray%20as%3D%22points%22%3E%3CmxPoint%20x%3D%22-2449%22%20y%3D%22-3761%22%2F%3E%3CmxPoint%20x%3D%22-2509%22%20y%3D%22-3761%22%2F%3E%3C%2FArray%3E%3C%2FmxGeometry%3E%3C%2FmxCell%3E%3CmxCell%20id%3D%2222%22%20style%3D%22edgeStyle%3DorthogonalEdgeStyle%3Brounded%3D1%3BorthogonalLoop%3D1%3BjettySize%3Dauto%3Bhtml%3D1%3BfillColor%3D%23dae8fc%3BexitX%3D0.5%3BexitY%3D1%3BexitDx%3D0%3BexitDy%3D0%3BstrokeColor%3D%23685BFF%3BstrokeWidth%3D2%3BendArrow%3Dblock%3BendFill%3D1%3BjumpStyle%3Darc%3BentryX%3D0.5%3BentryY%3D0%3BentryDx%3D0%3BentryDy%3D0%3B%22%20edge%3D%221%22%20source%3D%2223%22%20target%3D%2291%22%20parent%3D%221%22%3E%3CmxGeometry%20relative%3D%221%22%20as%3D%22geometry%22%3E" style="rounded=1;whiteSpace=wrap;html=1;dashed=1;arcSize=2;strokeColor=none;fillColor=#FAF3F4;" vertex="1" parent="1">
          <mxGeometry x="-13412" y="-5197" width="1219" height="890" as="geometry" />
        </mxCell>
        <mxCell id="gxGCP2PPDhguCthA1r52-3" value="&lt;font face=&quot;helvetica&quot;&gt;&lt;br&gt;&lt;/font&gt;" style="shape=ext;rounded=1;html=1;whiteSpace=wrap;fontFamily=Verdana;fontStyle=1;verticalAlign=top;dashed=1;strokeWidth=4;fillColor=none;strokeColor=#1720FF;" vertex="1" parent="1">
          <mxGeometry x="-12558.5" y="-5389" width="331" height="116.5" as="geometry" />
        </mxCell>
        <mxCell id="gxGCP2PPDhguCthA1r52-4" value="Merchant&amp;nbsp;&lt;br&gt;frontend (UI)" style="shape=ext;rounded=1;html=1;whiteSpace=wrap;strokeColor=none;fillColor=#1720FF;fontFamily=Verdana;fontColor=#FFFFFF;fontStyle=1" vertex="1" parent="1">
          <mxGeometry x="-12534.5" y="-5370.75" width="120" height="80" as="geometry" />
        </mxCell>
        <mxCell id="gxGCP2PPDhguCthA1r52-5" value="front UI" style="shape=ext;rounded=1;html=1;whiteSpace=wrap;strokeColor=none;fontFamily=Verdana;fontColor=#FFFFFF;fontStyle=1;fillColor=#6E00F1;" vertex="1" parent="1">
          <mxGeometry x="-13157" y="-5175" width="120" height="80" as="geometry" />
        </mxCell>
        <mxCell id="gxGCP2PPDhguCthA1r52-6" value="Bank 1" style="shape=ext;rounded=1;html=1;whiteSpace=wrap;labelBackgroundColor=none;strokeColor=none;fillColor=#1720FF;fontFamily=Verdana;fontStyle=1;flipV=0;fontColor=#FFFFFF;" vertex="1" parent="1">
          <mxGeometry x="-12094" y="-4827" width="120" height="80" as="geometry" />
        </mxCell>
        <mxCell id="gxGCP2PPDhguCthA1r52-7" value="&lt;h1 style=&quot;font-size: 20px;&quot;&gt;Payment System&lt;/h1&gt;" style="text;html=1;strokeColor=none;fillColor=none;spacing=5;spacingTop=-20;whiteSpace=wrap;overflow=hidden;rounded=0;align=right;fontFamily=Verdana;fontSize=20;fontColor=#333333;" vertex="1" parent="1">
          <mxGeometry x="-12782" y="-5193" width="227.5" height="33" as="geometry" />
        </mxCell>
        <mxCell id="gxGCP2PPDhguCthA1r52-8" value="&amp;nbsp;Merchant&amp;nbsp;&lt;br&gt;backend" style="shape=ext;rounded=1;html=1;whiteSpace=wrap;strokeColor=none;fillColor=#1720FF;fontFamily=Verdana;fontStyle=1;fontColor=#FFFFFF;" vertex="1" parent="1">
          <mxGeometry x="-12371.5" y="-5370.75" width="120" height="80" as="geometry" />
        </mxCell>
        <mxCell id="gxGCP2PPDhguCthA1r52-9" value="Bank 2" style="shape=ext;rounded=1;html=1;whiteSpace=wrap;labelBackgroundColor=none;strokeColor=none;fillColor=#1720FF;fontFamily=Verdana;fontStyle=1;flipV=0;fontColor=#FFFFFF;" vertex="1" parent="1">
          <mxGeometry x="-12094" y="-4710" width="120" height="80" as="geometry" />
        </mxCell>
        <mxCell id="gxGCP2PPDhguCthA1r52-10" value="" style="rounded=1;whiteSpace=wrap;html=1;arcSize=4;fontFamily=Verdana;fontSize=10;align=center;fontStyle=0;labelPosition=center;verticalLabelPosition=bottom;verticalAlign=top;labelBackgroundColor=#ffffff;strokeWidth=2;fontColor=#238059;dashed=1;strokeColor=none;fillColor=#B1F0D7;direction=south;" vertex="1" parent="1">
          <mxGeometry x="-12782" y="-4910" width="304" height="547" as="geometry" />
        </mxCell>
        <mxCell id="gxGCP2PPDhguCthA1r52-11" style="edgeStyle=orthogonalEdgeStyle;orthogonalLoop=1;jettySize=auto;html=1;exitX=0.5;exitY=1;exitDx=0;exitDy=0;endArrow=block;endFill=1;strokeWidth=2;fontColor=#000000;strokeColor=#00C991;endSize=6;startSize=6;startArrow=none;" edge="1" parent="1" source="gxGCP2PPDhguCthA1r52-70" target="gxGCP2PPDhguCthA1r52-45">
          <mxGeometry relative="1" as="geometry">
            <mxPoint x="-12561" y="-4254" as="targetPoint" />
          </mxGeometry>
        </mxCell>
        <mxCell id="gxGCP2PPDhguCthA1r52-12" value="&lt;span&gt;&lt;font style=&quot;font-size: 12px&quot;&gt;сore&amp;nbsp;&lt;br&gt;&lt;/font&gt;&lt;/span&gt;state machines" style="shape=ext;rounded=1;html=1;whiteSpace=wrap;fillColor=#00C991;strokeColor=none;fontFamily=Verdana;fontStyle=1;fontColor=#FFFFFF;" vertex="1" parent="1">
          <mxGeometry x="-12630.005" y="-4599.59" width="120" height="80" as="geometry" />
        </mxCell>
        <mxCell id="gxGCP2PPDhguCthA1r52-13" value="&lt;span&gt;core protocol&lt;/span&gt;" style="shape=ext;rounded=1;html=1;whiteSpace=wrap;fillColor=#00C991;strokeColor=none;fontFamily=Verdana;fontStyle=1;fontColor=#FFFFFF;" vertex="1" parent="1">
          <mxGeometry x="-12633" y="-4824.5" width="120" height="76.82" as="geometry" />
        </mxCell>
        <mxCell id="gxGCP2PPDhguCthA1r52-14" value="&lt;h1 style=&quot;font-size: 20px&quot;&gt;core&lt;/h1&gt;" style="text;html=1;strokeColor=none;fillColor=none;spacing=5;spacingTop=-20;whiteSpace=wrap;overflow=hidden;rounded=0;align=right;fontFamily=Verdana;fontSize=20;fontColor=#25875E;" vertex="1" parent="1">
          <mxGeometry x="-12551" y="-4902" width="66" height="37" as="geometry" />
        </mxCell>
        <mxCell id="gxGCP2PPDhguCthA1r52-15" style="edgeStyle=orthogonalEdgeStyle;rounded=1;orthogonalLoop=1;jettySize=auto;html=1;fontColor=#000000;exitX=0;exitY=0.5;exitDx=0;exitDy=0;strokeWidth=2;endArrow=block;endFill=1;strokeColor=#1720FF;endSize=6;startSize=6;entryX=1;entryY=0.5;entryDx=0;entryDy=0;" edge="1" parent="1" source="gxGCP2PPDhguCthA1r52-8" target="gxGCP2PPDhguCthA1r52-4">
          <mxGeometry relative="1" as="geometry">
            <mxPoint x="-11995" y="-5566.8" as="sourcePoint" />
            <mxPoint x="-12403" y="-5335.75" as="targetPoint" />
          </mxGeometry>
        </mxCell>
        <mxCell id="gxGCP2PPDhguCthA1r52-16" value="&lt;p style=&quot;margin: 0px ; font-stretch: normal ; line-height: normal ; font-family: &amp;#34;helvetica neue&amp;#34;&quot;&gt;&lt;br&gt;&lt;/p&gt;" style="edgeLabel;html=1;align=center;verticalAlign=middle;resizable=0;points=[];" vertex="1" connectable="0" parent="gxGCP2PPDhguCthA1r52-15">
          <mxGeometry x="-0.0482" y="1" relative="1" as="geometry">
            <mxPoint as="offset" />
          </mxGeometry>
        </mxCell>
        <mxCell id="gxGCP2PPDhguCthA1r52-17" style="edgeStyle=orthogonalEdgeStyle;rounded=1;orthogonalLoop=1;jettySize=auto;html=1;fontColor=#000000;exitX=0.5;exitY=1;exitDx=0;exitDy=0;strokeWidth=2;endArrow=block;endFill=1;jumpStyle=none;strokeColor=#1720FF;entryX=0.5;entryY=0;entryDx=0;entryDy=0;endSize=6;startSize=6;" edge="1" parent="1" source="gxGCP2PPDhguCthA1r52-3" target="gxGCP2PPDhguCthA1r52-38">
          <mxGeometry relative="1" as="geometry">
            <mxPoint x="-12414" y="-5232.5" as="sourcePoint" />
            <mxPoint x="-12702" y="-5032" as="targetPoint" />
          </mxGeometry>
        </mxCell>
        <mxCell id="gxGCP2PPDhguCthA1r52-18" value="&lt;p style=&quot;margin: 0px ; font-stretch: normal ; line-height: normal ; font-family: &amp;#34;helvetica neue&amp;#34;&quot;&gt;&lt;br&gt;&lt;/p&gt;" style="edgeLabel;html=1;align=center;verticalAlign=middle;resizable=0;points=[];" vertex="1" connectable="0" parent="gxGCP2PPDhguCthA1r52-17">
          <mxGeometry x="-0.0482" y="1" relative="1" as="geometry">
            <mxPoint as="offset" />
          </mxGeometry>
        </mxCell>
        <mxCell id="gxGCP2PPDhguCthA1r52-19" value="&lt;p style=&quot;margin: 0px ; font-stretch: normal ; line-height: normal&quot;&gt;&lt;br&gt;&lt;/p&gt;" style="edgeLabel;html=1;align=center;verticalAlign=middle;resizable=0;points=[];rotation=0;" vertex="1" connectable="0" parent="1">
          <mxGeometry x="-12921.000008144714" y="-4057.0024074149487" as="geometry">
            <mxPoint x="-83.99999999999994" y="-288" as="offset" />
          </mxGeometry>
        </mxCell>
        <mxCell id="gxGCP2PPDhguCthA1r52-20" value="" style="shape=ext;rounded=1;html=1;whiteSpace=wrap;strokeColor=none;fontFamily=Verdana;fontColor=#EE8CFF;fontStyle=1;fillColor=#EE8CFF;opacity=60;" vertex="1" parent="1">
          <mxGeometry x="-13149" y="-5579" width="244" height="33" as="geometry" />
        </mxCell>
        <mxCell id="gxGCP2PPDhguCthA1r52-21" value="&lt;h1&gt;&lt;span style=&quot;font-size: 16px ; font-weight: 400&quot;&gt;External service&lt;/span&gt;&lt;br&gt;&lt;/h1&gt;" style="text;html=1;strokeColor=none;fillColor=none;spacing=5;spacingTop=-20;whiteSpace=wrap;overflow=hidden;rounded=0;align=left;fontFamily=Verdana;fontSize=16;fontStyle=0;fontColor=#666666;verticalAlign=top;" vertex="1" parent="1">
          <mxGeometry x="-13081.71" y="-5420.5" width="193" height="48.5" as="geometry" />
        </mxCell>
        <mxCell id="gxGCP2PPDhguCthA1r52-22" value="&lt;h1&gt;&lt;font face=&quot;helvetica neue&quot;&gt;&lt;span style=&quot;font-size: 17px ; font-weight: 400&quot;&gt;PCI-DSS&lt;/span&gt;&lt;/font&gt;&lt;/h1&gt;" style="text;html=1;strokeColor=none;fillColor=none;spacing=5;spacingTop=-20;whiteSpace=wrap;overflow=hidden;rounded=0;align=left;fontFamily=Verdana;fontSize=16;fontStyle=0;fontColor=#666666;verticalAlign=top;" vertex="1" parent="1">
          <mxGeometry x="-13080.71" y="-5606" width="109.21" height="60" as="geometry" />
        </mxCell>
        <mxCell id="gxGCP2PPDhguCthA1r52-23" value="" style="shape=datastore;whiteSpace=wrap;html=1;fontSize=9;fontFamily=Verdana;fontStyle=1;fillColor=#00996E;fontColor=#FFFFFF;strokeColor=#2DA372;" vertex="1" parent="1">
          <mxGeometry x="-12824" y="-5575" width="27" height="33" as="geometry" />
        </mxCell>
        <mxCell id="gxGCP2PPDhguCthA1r52-24" value="" style="shape=ext;rounded=1;html=1;whiteSpace=wrap;strokeColor=none;fontFamily=Verdana;fontColor=#FFFFFF;fontStyle=1;fillColor=#1720FF;" vertex="1" parent="1">
          <mxGeometry x="-13149" y="-5402.5" width="52" height="33" as="geometry" />
        </mxCell>
        <mxCell id="gxGCP2PPDhguCthA1r52-25" value="&lt;h1&gt;&lt;p class=&quot;p1&quot; style=&quot;margin: 0px ; font-stretch: normal ; line-height: normal&quot;&gt;&lt;font face=&quot;helvetica neue&quot;&gt;&lt;span style=&quot;font-size: 17px ; font-weight: 400&quot;&gt;Postgres database&lt;/span&gt;&lt;/font&gt;&lt;br&gt;&lt;/p&gt;&lt;/h1&gt;" style="text;html=1;strokeColor=none;fillColor=none;spacing=5;spacingTop=-20;whiteSpace=wrap;overflow=hidden;rounded=0;align=left;fontFamily=Verdana;fontSize=16;fontStyle=0;fontColor=#666666;" vertex="1" parent="1">
          <mxGeometry x="-12781" y="-5594" width="193" height="63" as="geometry" />
        </mxCell>
        <mxCell id="gxGCP2PPDhguCthA1r52-26" value="" style="shape=ext;rounded=1;html=1;whiteSpace=wrap;strokeColor=none;fontFamily=Verdana;fontColor=#FFFFFF;fontStyle=1;fillColor=#6E00F1;" vertex="1" parent="1">
          <mxGeometry x="-13149" y="-5462.19" width="52" height="33" as="geometry" />
        </mxCell>
        <mxCell id="gxGCP2PPDhguCthA1r52-27" value="" style="shape=ext;rounded=1;html=1;whiteSpace=wrap;strokeColor=none;fontFamily=Verdana;fontColor=#FFFFFF;fontStyle=1;fillColor=#00C991;" vertex="1" parent="1">
          <mxGeometry x="-13149" y="-5521" width="52" height="33" as="geometry" />
        </mxCell>
        <mxCell id="gxGCP2PPDhguCthA1r52-28" value="&lt;h1&gt;&lt;p class=&quot;p1&quot; style=&quot;margin: 0px ; font-stretch: normal ; line-height: normal&quot;&gt;&lt;font face=&quot;helvetica neue&quot;&gt;&lt;span style=&quot;font-size: 17px ; font-weight: 400&quot;&gt;Software/user interface&lt;/span&gt;&lt;/font&gt;&lt;br&gt;&lt;/p&gt;&lt;/h1&gt;" style="text;html=1;strokeColor=none;fillColor=none;spacing=5;spacingTop=-20;whiteSpace=wrap;overflow=hidden;rounded=0;align=left;fontFamily=Verdana;fontSize=16;fontStyle=0;fontColor=#666666;verticalAlign=top;" vertex="1" parent="1">
          <mxGeometry x="-13082" y="-5477.19" width="215" height="46" as="geometry" />
        </mxCell>
        <mxCell id="gxGCP2PPDhguCthA1r52-29" value="&lt;h1 style=&quot;&quot;&gt;&lt;font face=&quot;verdana&quot;&gt;&lt;span style=&quot;font-size: 16px ; font-weight: 400&quot;&gt;Internal microservice&lt;/span&gt;&lt;/font&gt;&lt;br&gt;&lt;/h1&gt;" style="text;html=1;strokeColor=none;fillColor=none;align=left;verticalAlign=top;whiteSpace=wrap;rounded=0;fontColor=#666666;fontFamily=Verdana;fontSize=16;fontStyle=0;spacing=5;spacingTop=-20;" vertex="1" parent="1">
          <mxGeometry x="-13081.71" y="-5536" width="195" height="37" as="geometry" />
        </mxCell>
        <mxCell id="gxGCP2PPDhguCthA1r52-30" value="&lt;h1&gt;&lt;p class=&quot;p1&quot; style=&quot;margin: 0px ; font-stretch: normal ; line-height: normal&quot;&gt;&lt;font face=&quot;helvetica neue&quot; size=&quot;4&quot;&gt;&lt;span style=&quot;font-weight: 400&quot;&gt;service dependencies&lt;/span&gt;&lt;/font&gt;&lt;br&gt;&lt;/p&gt;&lt;/h1&gt;" style="text;html=1;strokeColor=none;fillColor=none;spacing=5;spacingTop=-20;whiteSpace=wrap;overflow=hidden;rounded=0;align=left;fontFamily=Verdana;fontSize=16;fontStyle=0;fontColor=#666666;" vertex="1" parent="1">
          <mxGeometry x="-12749" y="-5473" width="216" height="61" as="geometry" />
        </mxCell>
        <mxCell id="gxGCP2PPDhguCthA1r52-31" value="" style="endArrow=block;html=1;strokeWidth=2;jumpSize=4;endFill=1;endSize=6;startSize=6;strokeColor=#00C991;" edge="1" parent="1">
          <mxGeometry width="50" height="50" relative="1" as="geometry">
            <mxPoint x="-12824" y="-5446.5" as="sourcePoint" />
            <mxPoint x="-12756" y="-5446.5" as="targetPoint" />
          </mxGeometry>
        </mxCell>
        <mxCell id="gxGCP2PPDhguCthA1r52-32" value="" style="endArrow=block;html=1;strokeWidth=2;jumpSize=4;endFill=1;endSize=6;startSize=6;strokeColor=#1720FF;" edge="1" parent="1">
          <mxGeometry width="50" height="50" relative="1" as="geometry">
            <mxPoint x="-12824" y="-5424" as="sourcePoint" />
            <mxPoint x="-12756" y="-5424" as="targetPoint" />
          </mxGeometry>
        </mxCell>
        <mxCell id="gxGCP2PPDhguCthA1r52-33" value="" style="endArrow=block;html=1;strokeWidth=2;jumpSize=4;endFill=1;endSize=6;startSize=6;strokeColor=#00C991;entryX=0.5;entryY=0;entryDx=0;entryDy=0;jumpStyle=arc;exitX=0.5;exitY=1;exitDx=0;exitDy=0;" edge="1" parent="1" source="gxGCP2PPDhguCthA1r52-38" target="gxGCP2PPDhguCthA1r52-13">
          <mxGeometry width="50" height="50" relative="1" as="geometry">
            <mxPoint x="-12401.000000000038" y="-4857.68" as="sourcePoint" />
            <mxPoint x="-12924" y="-4519" as="targetPoint" />
            <Array as="points">
              <mxPoint x="-12393" y="-4857" />
              <mxPoint x="-12573" y="-4857" />
            </Array>
          </mxGeometry>
        </mxCell>
        <mxCell id="gxGCP2PPDhguCthA1r52-34" style="edgeStyle=orthogonalEdgeStyle;rounded=1;orthogonalLoop=1;jettySize=auto;html=1;labelBackgroundColor=#ffffff;endArrow=block;endFill=1;endSize=6;strokeWidth=2;fontFamily=Helvetica;fontSize=11;fontColor=#000000;jumpStyle=arc;entryX=0;entryY=0.5;entryDx=0;entryDy=0;startArrow=none;exitX=1;exitY=0.5;exitDx=0;exitDy=0;strokeColor=#1720FF;startSize=6;" edge="1" parent="1" source="gxGCP2PPDhguCthA1r52-49" target="gxGCP2PPDhguCthA1r52-6">
          <mxGeometry relative="1" as="geometry">
            <Array as="points" />
            <mxPoint x="-12189" y="-4373" as="sourcePoint" />
            <mxPoint x="-11675" y="-4289" as="targetPoint" />
          </mxGeometry>
        </mxCell>
        <mxCell id="gxGCP2PPDhguCthA1r52-35" value="&lt;span&gt;core object model&lt;/span&gt;" style="shape=ext;rounded=1;html=1;whiteSpace=wrap;fillColor=#00C991;strokeColor=none;fontFamily=Verdana;fontStyle=1;fontColor=#FFFFFF;" vertex="1" parent="1">
          <mxGeometry x="-12765" y="-4706.32" width="120" height="76.82" as="geometry" />
        </mxCell>
        <mxCell id="gxGCP2PPDhguCthA1r52-36" style="edgeStyle=orthogonalEdgeStyle;orthogonalLoop=1;jettySize=auto;html=1;exitX=0;exitY=0.5;exitDx=0;exitDy=0;endArrow=block;endFill=1;strokeWidth=2;fontColor=#000000;strokeColor=#00C991;entryX=0.75;entryY=0;entryDx=0;entryDy=0;endSize=6;startSize=6;" edge="1" parent="1" source="gxGCP2PPDhguCthA1r52-76" target="gxGCP2PPDhguCthA1r52-35">
          <mxGeometry relative="1" as="geometry">
            <mxPoint x="-12716" y="-4268" as="targetPoint" />
            <mxPoint x="-12715" y="-4432.18" as="sourcePoint" />
          </mxGeometry>
        </mxCell>
        <mxCell id="gxGCP2PPDhguCthA1r52-37" value="" style="shape=datastore;whiteSpace=wrap;html=1;fontSize=9;fontFamily=Verdana;fontStyle=1;fillColor=#00996E;fontColor=#FFFFFF;strokeColor=#2DA372;" vertex="1" parent="1">
          <mxGeometry x="-12774" y="-4718" width="27" height="33" as="geometry" />
        </mxCell>
        <mxCell id="gxGCP2PPDhguCthA1r52-38" value="API" style="shape=ext;rounded=1;html=1;whiteSpace=wrap;strokeColor=none;fontFamily=Verdana;fontColor=#FFFFFF;fontStyle=1;fillColor=#6E00F1;" vertex="1" parent="1">
          <mxGeometry x="-12453" y="-5013" width="120" height="80" as="geometry" />
        </mxCell>
        <mxCell id="gxGCP2PPDhguCthA1r52-39" value="core bank" style="shape=ext;rounded=1;html=1;whiteSpace=wrap;labelBackgroundColor=none;strokeColor=none;fillColor=#00C991;fontFamily=Verdana;fontStyle=1;flipV=0;fontColor=#FFFFFF;" vertex="1" parent="1">
          <mxGeometry x="-13157" y="-4707.91" width="120" height="80" as="geometry" />
        </mxCell>
        <mxCell id="gxGCP2PPDhguCthA1r52-42" style="edgeStyle=orthogonalEdgeStyle;rounded=1;orthogonalLoop=1;jettySize=auto;html=1;labelBackgroundColor=#ffffff;endArrow=none;endFill=0;endSize=6;strokeWidth=2;fontFamily=Helvetica;fontSize=11;fontColor=#000000;jumpStyle=arc;entryX=1;entryY=0.5;entryDx=0;entryDy=0;startArrow=block;exitX=0;exitY=0.7;exitDx=0;exitDy=0;strokeColor=#1720FF;startSize=6;startFill=1;" edge="1" parent="1" source="gxGCP2PPDhguCthA1r52-88" target="gxGCP2PPDhguCthA1r52-90">
          <mxGeometry relative="1" as="geometry">
            <Array as="points" />
            <mxPoint x="-12665" y="-4057" as="sourcePoint" />
            <mxPoint x="-13076.05" y="-4468.5" as="targetPoint" />
          </mxGeometry>
        </mxCell>
        <mxCell id="gxGCP2PPDhguCthA1r52-43" style="edgeStyle=orthogonalEdgeStyle;rounded=1;orthogonalLoop=1;jettySize=auto;html=1;labelBackgroundColor=#ffffff;endArrow=block;endFill=1;endSize=6;strokeWidth=2;fontFamily=Helvetica;fontSize=11;fontColor=#000000;jumpStyle=arc;startArrow=none;exitX=0.5;exitY=1;exitDx=0;exitDy=0;strokeColor=#1720FF;startSize=6;entryX=0.5;entryY=0;entryDx=0;entryDy=0;" edge="1" parent="1" source="gxGCP2PPDhguCthA1r52-39" target="gxGCP2PPDhguCthA1r52-90">
          <mxGeometry relative="1" as="geometry">
            <Array as="points" />
            <mxPoint x="-12428.5" y="-4219" as="sourcePoint" />
            <mxPoint x="-13096" y="-4471" as="targetPoint" />
          </mxGeometry>
        </mxCell>
        <mxCell id="gxGCP2PPDhguCthA1r52-45" value="core&lt;br style=&quot;font-size: 12px;&quot;&gt;base" style="shape=datastore;whiteSpace=wrap;html=1;fontColor=#FFFFFF;fontFamily=Verdana;fontStyle=1;strokeColor=#1720FF;fillColor=#6E00F1;fontSize=12;align=center;verticalAlign=middle;" vertex="1" parent="1">
          <mxGeometry x="-12670" y="-4471" width="57" height="50" as="geometry" />
        </mxCell>
        <mxCell id="gxGCP2PPDhguCthA1r52-46" style="edgeStyle=orthogonalEdgeStyle;rounded=1;orthogonalLoop=1;jettySize=auto;html=1;fontColor=#000000;strokeWidth=2;endArrow=block;endFill=1;jumpStyle=none;strokeColor=#1720FF;endSize=6;startSize=6;entryX=0.25;entryY=0;entryDx=0;entryDy=0;startArrow=none;" edge="1" parent="1" target="gxGCP2PPDhguCthA1r52-38">
          <mxGeometry relative="1" as="geometry">
            <mxPoint x="-12702" y="-5057" as="sourcePoint" />
            <mxPoint x="-12300" y="-5003" as="targetPoint" />
          </mxGeometry>
        </mxCell>
        <mxCell id="gxGCP2PPDhguCthA1r52-47" style="edgeStyle=orthogonalEdgeStyle;rounded=1;orthogonalLoop=1;jettySize=auto;html=1;fontColor=#000000;exitX=0.5;exitY=1;exitDx=0;exitDy=0;strokeWidth=2;endArrow=block;endFill=1;jumpStyle=none;strokeColor=#1720FF;endSize=6;startSize=6;startArrow=none;" edge="1" parent="1" source="gxGCP2PPDhguCthA1r52-84" target="gxGCP2PPDhguCthA1r52-39">
          <mxGeometry relative="1" as="geometry">
            <mxPoint x="-12675" y="-5085" as="sourcePoint" />
            <mxPoint x="-12360" y="-5003" as="targetPoint" />
          </mxGeometry>
        </mxCell>
        <mxCell id="gxGCP2PPDhguCthA1r52-48" value="adapter&amp;nbsp; 2" style="shape=ext;rounded=1;html=1;whiteSpace=wrap;fillColor=#00C991;strokeColor=none;fontFamily=Verdana;fontStyle=1;fontColor=#FFFFFF;" vertex="1" parent="1">
          <mxGeometry x="-12388" y="-4708.82" width="120" height="76.82" as="geometry" />
        </mxCell>
        <mxCell id="gxGCP2PPDhguCthA1r52-49" value="adapter 1" style="shape=ext;rounded=1;html=1;whiteSpace=wrap;fillColor=#00C991;strokeColor=none;fontFamily=Verdana;fontStyle=1;fontColor=#FFFFFF;" vertex="1" parent="1">
          <mxGeometry x="-12386" y="-4824.500000000001" width="120" height="76.82" as="geometry" />
        </mxCell>
        <mxCell id="gxGCP2PPDhguCthA1r52-50" style="edgeStyle=orthogonalEdgeStyle;rounded=1;orthogonalLoop=1;jettySize=auto;html=1;labelBackgroundColor=#ffffff;endArrow=block;endFill=1;endSize=6;strokeWidth=2;fontFamily=Helvetica;fontSize=11;fontColor=#000000;jumpStyle=arc;startArrow=none;exitX=1;exitY=0.5;exitDx=0;exitDy=0;strokeColor=#1720FF;startSize=6;" edge="1" parent="1" source="gxGCP2PPDhguCthA1r52-48" target="gxGCP2PPDhguCthA1r52-9">
          <mxGeometry relative="1" as="geometry">
            <Array as="points" />
            <mxPoint x="-12103" y="-4518.590000000001" as="sourcePoint" />
            <mxPoint x="-11734" y="-4412" as="targetPoint" />
          </mxGeometry>
        </mxCell>
        <mxCell id="gxGCP2PPDhguCthA1r52-51" style="edgeStyle=orthogonalEdgeStyle;rounded=1;orthogonalLoop=1;jettySize=auto;html=1;labelBackgroundColor=#EEF9F7;endArrow=block;endFill=1;endSize=6;strokeWidth=2;fontFamily=Verdana;fontSize=20;fontColor=#FFFFFF;strokeColor=#38CD8F;jumpStyle=arc;startArrow=none;startFill=0;exitX=1;exitY=0.5;exitDx=0;exitDy=0;entryX=0;entryY=0.5;entryDx=0;entryDy=0;" edge="1" parent="1" source="gxGCP2PPDhguCthA1r52-53" target="gxGCP2PPDhguCthA1r52-49">
          <mxGeometry relative="1" as="geometry">
            <mxPoint x="-12450" y="-4528" as="targetPoint" />
            <mxPoint x="-12390" y="-4486" as="sourcePoint" />
          </mxGeometry>
        </mxCell>
        <mxCell id="gxGCP2PPDhguCthA1r52-52" style="edgeStyle=orthogonalEdgeStyle;rounded=1;orthogonalLoop=1;jettySize=auto;html=1;labelBackgroundColor=#EEF9F7;endArrow=block;endFill=1;endSize=6;strokeWidth=2;fontFamily=Verdana;fontSize=20;fontColor=#FFFFFF;strokeColor=#38CD8F;exitX=0.5;exitY=1;exitDx=0;exitDy=0;jumpStyle=arc;startArrow=none;startFill=1;entryX=0;entryY=0.5;entryDx=0;entryDy=0;" edge="1" parent="1" source="gxGCP2PPDhguCthA1r52-53" target="gxGCP2PPDhguCthA1r52-48">
          <mxGeometry relative="1" as="geometry">
            <mxPoint x="-12483" y="-4412" as="targetPoint" />
            <mxPoint x="-12642" y="-4470.59" as="sourcePoint" />
          </mxGeometry>
        </mxCell>
        <mxCell id="gxGCP2PPDhguCthA1r52-53" value="" style="ellipse;whiteSpace=wrap;html=1;aspect=fixed;strokeColor=none;fillColor=#00C991;" vertex="1" parent="1">
          <mxGeometry x="-12439" y="-4793.82" width="16" height="16" as="geometry" />
        </mxCell>
        <mxCell id="gxGCP2PPDhguCthA1r52-54" value="" style="edgeStyle=orthogonalEdgeStyle;rounded=1;orthogonalLoop=1;jettySize=auto;html=1;labelBackgroundColor=#EEF9F7;endArrow=none;endFill=1;endSize=6;strokeWidth=2;fontFamily=Verdana;fontSize=20;fontColor=#FFFFFF;strokeColor=#38CD8F;jumpStyle=arc;startArrow=block;startFill=1;exitX=1;exitY=0.5;exitDx=0;exitDy=0;" edge="1" parent="1" source="gxGCP2PPDhguCthA1r52-13" target="gxGCP2PPDhguCthA1r52-53">
          <mxGeometry relative="1" as="geometry">
            <mxPoint x="-12387" y="-4477" as="targetPoint" />
            <Array as="points">
              <mxPoint x="-12493" y="-4786" />
            </Array>
            <mxPoint x="-12512" y="-4764" as="sourcePoint" />
          </mxGeometry>
        </mxCell>
        <mxCell id="gxGCP2PPDhguCthA1r52-55" value="" style="edgeStyle=orthogonalEdgeStyle;rounded=1;orthogonalLoop=1;jettySize=auto;html=1;labelBackgroundColor=#ffffff;endArrow=block;endFill=1;endSize=6;strokeWidth=2;fontFamily=Helvetica;fontSize=11;fontColor=#000000;jumpStyle=arc;entryX=1;entryY=0.7;entryDx=0;entryDy=0;startArrow=none;exitX=0;exitY=0.5;exitDx=0;exitDy=0;strokeColor=#1720FF;startSize=6;" edge="1" parent="1" source="gxGCP2PPDhguCthA1r52-45" target="gxGCP2PPDhguCthA1r52-88">
          <mxGeometry relative="1" as="geometry">
            <mxPoint x="-12719" y="-4475.5" as="sourcePoint" />
            <mxPoint x="-13068.5" y="-4454" as="targetPoint" />
          </mxGeometry>
        </mxCell>
        <mxCell id="gxGCP2PPDhguCthA1r52-56" value="antifraud" style="shape=ext;rounded=1;html=1;whiteSpace=wrap;fillColor=#00C991;strokeColor=none;fontFamily=Verdana;fontStyle=1;fontColor=#FFFFFF;" vertex="1" parent="1">
          <mxGeometry x="-12911.5" y="-4825.179999999999" width="120" height="76.82" as="geometry" />
        </mxCell>
        <mxCell id="gxGCP2PPDhguCthA1r52-57" value="&lt;font style=&quot;font-size: 12px&quot;&gt;notificator&lt;/font&gt;" style="shape=ext;rounded=1;html=1;whiteSpace=wrap;fillColor=#00C991;strokeColor=none;fontFamily=Verdana;fontStyle=1;fontColor=#FFFFFF;" vertex="1" parent="1">
          <mxGeometry x="-12986.5" y="-4704.73" width="120" height="76.82" as="geometry" />
        </mxCell>
        <mxCell id="gxGCP2PPDhguCthA1r52-58" style="edgeStyle=orthogonalEdgeStyle;orthogonalLoop=1;jettySize=auto;html=1;exitX=0;exitY=0.5;exitDx=0;exitDy=0;endArrow=block;endFill=1;strokeWidth=2;fontColor=#000000;strokeColor=#00C991;endSize=6;startSize=6;" edge="1" parent="1" source="gxGCP2PPDhguCthA1r52-13" target="gxGCP2PPDhguCthA1r52-56">
          <mxGeometry relative="1" as="geometry">
            <mxPoint x="-12693" y="-4639.91" as="targetPoint" />
            <mxPoint x="-12613" y="-4715.68" as="sourcePoint" />
          </mxGeometry>
        </mxCell>
        <mxCell id="gxGCP2PPDhguCthA1r52-59" value="" style="shape=datastore;whiteSpace=wrap;html=1;fontSize=9;fontFamily=Verdana;fontStyle=1;fillColor=#6E00F1;fontColor=#6E00F1;strokeColor=#1720FF;" vertex="1" parent="1">
          <mxGeometry x="-12824" y="-5517" width="27" height="33" as="geometry" />
        </mxCell>
        <mxCell id="gxGCP2PPDhguCthA1r52-60" value="&lt;h1&gt;&lt;p class=&quot;p1&quot; style=&quot;margin: 0px ; font-stretch: normal ; line-height: normal&quot;&gt;&lt;font face=&quot;helvetica neue&quot;&gt;&lt;span style=&quot;font-size: 17px ; font-weight: 400&quot;&gt;Other database&lt;/span&gt;&lt;/font&gt;&lt;br&gt;&lt;/p&gt;&lt;/h1&gt;" style="text;html=1;strokeColor=none;fillColor=none;spacing=5;spacingTop=-20;whiteSpace=wrap;overflow=hidden;rounded=0;align=left;fontFamily=Verdana;fontSize=16;fontStyle=0;fontColor=#666666;" vertex="1" parent="1">
          <mxGeometry x="-12786.5" y="-5540.19" width="193" height="63" as="geometry" />
        </mxCell>
        <mxCell id="gxGCP2PPDhguCthA1r52-61" style="edgeStyle=orthogonalEdgeStyle;rounded=1;orthogonalLoop=1;jettySize=auto;html=1;entryX=0.5;entryY=0;entryDx=0;entryDy=0;labelBackgroundColor=#EEF9F7;endArrow=block;endFill=1;endSize=6;strokeWidth=2;fontFamily=Verdana;fontSize=20;fontColor=#FFFFFF;strokeColor=#38CD8F;exitX=0.5;exitY=1;exitDx=0;exitDy=0;jumpStyle=arc;startArrow=none;" edge="1" parent="1" source="gxGCP2PPDhguCthA1r52-57" target="gxGCP2PPDhguCthA1r52-88">
          <mxGeometry relative="1" as="geometry">
            <mxPoint x="-12334" y="-4420.795" as="targetPoint" />
            <mxPoint x="-12278" y="-4532.5" as="sourcePoint" />
          </mxGeometry>
        </mxCell>
        <mxCell id="gxGCP2PPDhguCthA1r52-62" value="tester" style="shape=ext;rounded=1;html=1;whiteSpace=wrap;fillColor=#00C991;strokeColor=none;fontFamily=Verdana;fontStyle=1;fontColor=#FFFFFF;" vertex="1" parent="1">
          <mxGeometry x="-12654.5" y="-5011.41" width="120" height="76.82" as="geometry" />
        </mxCell>
        <mxCell id="gxGCP2PPDhguCthA1r52-63" value="" style="endArrow=block;html=1;strokeWidth=2;jumpSize=4;endFill=1;endSize=6;startSize=6;strokeColor=#00C991;entryX=0;entryY=0.5;entryDx=0;entryDy=0;jumpStyle=arc;exitX=1;exitY=0.5;exitDx=0;exitDy=0;" edge="1" parent="1" source="gxGCP2PPDhguCthA1r52-62" target="gxGCP2PPDhguCthA1r52-38">
          <mxGeometry width="50" height="50" relative="1" as="geometry">
            <mxPoint x="-12338.00000000004" y="-4847" as="sourcePoint" />
            <mxPoint x="-12583" y="-4792.5" as="targetPoint" />
          </mxGeometry>
        </mxCell>
        <mxCell id="gxGCP2PPDhguCthA1r52-64" value="log base" style="shape=datastore;whiteSpace=wrap;html=1;fontColor=#FFFFFF;fontFamily=Verdana;fontStyle=1;strokeColor=#2DA372;fillColor=#00996E;fontSize=12;" vertex="1" parent="1">
          <mxGeometry x="-13128" y="-4380.59" width="57" height="50" as="geometry" />
        </mxCell>
        <mxCell id="gxGCP2PPDhguCthA1r52-65" style="edgeStyle=orthogonalEdgeStyle;rounded=1;orthogonalLoop=1;jettySize=auto;html=1;labelBackgroundColor=#EEF9F7;endArrow=block;endFill=1;endSize=6;strokeWidth=2;fontFamily=Verdana;fontSize=20;fontColor=#FFFFFF;strokeColor=#38CD8F;jumpStyle=arc;startArrow=none;startFill=1;entryX=0;entryY=0.5;entryDx=0;entryDy=0;exitX=1;exitY=0.5;exitDx=0;exitDy=0;" edge="1" parent="1" source="gxGCP2PPDhguCthA1r52-68" target="gxGCP2PPDhguCthA1r52-64">
          <mxGeometry relative="1" as="geometry">
            <mxPoint x="-12857" y="-4430" as="targetPoint" />
            <mxPoint x="-12895" y="-4370" as="sourcePoint" />
          </mxGeometry>
        </mxCell>
        <mxCell id="gxGCP2PPDhguCthA1r52-66" value="BI system&lt;br&gt;(Power BI, Grafana)" style="shape=ext;rounded=1;html=1;whiteSpace=wrap;labelBackgroundColor=none;strokeColor=none;fillColor=#00C991;fontFamily=Verdana;fontStyle=1;flipV=0;fontColor=#FFFFFF;" vertex="1" parent="1">
          <mxGeometry x="-13353" y="-4486" width="120" height="80" as="geometry" />
        </mxCell>
        <mxCell id="gxGCP2PPDhguCthA1r52-67" style="edgeStyle=orthogonalEdgeStyle;rounded=1;orthogonalLoop=1;jettySize=auto;html=1;labelBackgroundColor=#ffffff;endArrow=block;endFill=1;endSize=6;strokeWidth=2;fontFamily=Helvetica;fontSize=11;fontColor=#000000;jumpStyle=arc;startArrow=none;exitX=1;exitY=0.5;exitDx=0;exitDy=0;strokeColor=#1720FF;startSize=6;entryX=0;entryY=0.5;entryDx=0;entryDy=0;" edge="1" parent="1" source="gxGCP2PPDhguCthA1r52-66" target="gxGCP2PPDhguCthA1r52-90">
          <mxGeometry relative="1" as="geometry">
            <Array as="points" />
            <mxPoint x="-13086" y="-4607.91" as="sourcePoint" />
            <mxPoint x="-13096" y="-4421" as="targetPoint" />
          </mxGeometry>
        </mxCell>
        <mxCell id="gxGCP2PPDhguCthA1r52-68" value="ELK" style="shape=ext;rounded=1;html=1;whiteSpace=wrap;fillColor=#00C991;strokeColor=none;fontFamily=Verdana;fontStyle=1;fontColor=#FFFFFF;" vertex="1" parent="1">
          <mxGeometry x="-13350" y="-4394" width="120" height="76.82" as="geometry" />
        </mxCell>
        <mxCell id="gxGCP2PPDhguCthA1r52-69" value="&lt;span&gt;&lt;font style=&quot;font-size: 12px&quot;&gt;сore&amp;nbsp;&lt;br&gt;&lt;/font&gt;&lt;/span&gt;transactions" style="shape=ext;rounded=1;html=1;whiteSpace=wrap;fillColor=#00C991;strokeColor=none;fontFamily=Verdana;fontStyle=1;fontColor=#FFFFFF;" vertex="1" parent="1">
          <mxGeometry x="-12765.005" y="-4598" width="120" height="80" as="geometry" />
        </mxCell>
        <mxCell id="gxGCP2PPDhguCthA1r52-70" value="" style="ellipse;whiteSpace=wrap;html=1;aspect=fixed;strokeColor=none;fillColor=#00C991;" vertex="1" parent="1">
          <mxGeometry x="-12649.5" y="-4504.59" width="16" height="16" as="geometry" />
        </mxCell>
        <mxCell id="gxGCP2PPDhguCthA1r52-71" value="" style="edgeStyle=orthogonalEdgeStyle;orthogonalLoop=1;jettySize=auto;html=1;exitX=0.5;exitY=1;exitDx=0;exitDy=0;endArrow=none;endFill=1;strokeWidth=2;fontColor=#000000;strokeColor=#00C991;endSize=6;startSize=6;entryX=1;entryY=0.5;entryDx=0;entryDy=0;" edge="1" parent="1" source="gxGCP2PPDhguCthA1r52-12" target="gxGCP2PPDhguCthA1r52-70">
          <mxGeometry relative="1" as="geometry">
            <mxPoint x="-12646.5" y="-4471" as="targetPoint" />
            <mxPoint x="-12570.005" y="-4520" as="sourcePoint" />
            <Array as="points">
              <mxPoint x="-12570" y="-4497" />
              <mxPoint x="-12638" y="-4497" />
            </Array>
          </mxGeometry>
        </mxCell>
        <mxCell id="gxGCP2PPDhguCthA1r52-72" value="" style="edgeStyle=orthogonalEdgeStyle;orthogonalLoop=1;jettySize=auto;html=1;exitX=0.5;exitY=1;exitDx=0;exitDy=0;endArrow=none;endFill=1;strokeWidth=2;fontColor=#000000;strokeColor=#00C991;endSize=6;startSize=6;entryX=0;entryY=0.5;entryDx=0;entryDy=0;" edge="1" parent="1" source="gxGCP2PPDhguCthA1r52-69" target="gxGCP2PPDhguCthA1r52-70">
          <mxGeometry relative="1" as="geometry">
            <mxPoint x="-12636.5" y="-4494.59" as="targetPoint" />
            <mxPoint x="-12560.005" y="-4510" as="sourcePoint" />
          </mxGeometry>
        </mxCell>
        <mxCell id="gxGCP2PPDhguCthA1r52-73" style="edgeStyle=orthogonalEdgeStyle;orthogonalLoop=1;jettySize=auto;html=1;exitX=0;exitY=0.5;exitDx=0;exitDy=0;endArrow=block;endFill=1;strokeWidth=2;fontColor=#000000;strokeColor=#38CD8F;entryX=0.5;entryY=0;entryDx=0;entryDy=0;startArrow=none;" edge="1" parent="1" source="gxGCP2PPDhguCthA1r52-77" target="gxGCP2PPDhguCthA1r52-69">
          <mxGeometry relative="1" as="geometry">
            <mxPoint x="-12560" y="-4590" as="targetPoint" />
            <mxPoint x="-12533" y="-4715.68" as="sourcePoint" />
          </mxGeometry>
        </mxCell>
        <mxCell id="gxGCP2PPDhguCthA1r52-74" value="" style="shape=datastore;whiteSpace=wrap;html=1;fontSize=9;fontFamily=Verdana;fontStyle=1;fillColor=#00996E;fontColor=#FFFFFF;strokeColor=#2DA372;" vertex="1" parent="1">
          <mxGeometry x="-12918.5" y="-4836.679999999999" width="27" height="33" as="geometry" />
        </mxCell>
        <mxCell id="gxGCP2PPDhguCthA1r52-75" value="" style="edgeStyle=orthogonalEdgeStyle;orthogonalLoop=1;jettySize=auto;html=1;exitX=0.5;exitY=1;exitDx=0;exitDy=0;endArrow=none;endFill=1;strokeWidth=2;fontColor=#000000;strokeColor=#38CD8F;entryX=0.5;entryY=0;entryDx=0;entryDy=0;" edge="1" parent="1" source="gxGCP2PPDhguCthA1r52-13" target="gxGCP2PPDhguCthA1r52-76">
          <mxGeometry relative="1" as="geometry">
            <mxPoint x="-12705.005" y="-4598" as="targetPoint" />
            <mxPoint x="-12573" y="-4747.68" as="sourcePoint" />
            <Array as="points" />
          </mxGeometry>
        </mxCell>
        <mxCell id="gxGCP2PPDhguCthA1r52-76" value="" style="ellipse;whiteSpace=wrap;html=1;aspect=fixed;strokeColor=none;fillColor=#00C991;" vertex="1" parent="1">
          <mxGeometry x="-12581" y="-4734" width="16" height="16" as="geometry" />
        </mxCell>
        <mxCell id="gxGCP2PPDhguCthA1r52-77" value="" style="ellipse;whiteSpace=wrap;html=1;aspect=fixed;strokeColor=none;fillColor=#00C991;" vertex="1" parent="1">
          <mxGeometry x="-12581" y="-4630" width="16" height="16" as="geometry" />
        </mxCell>
        <mxCell id="gxGCP2PPDhguCthA1r52-78" value="" style="edgeStyle=orthogonalEdgeStyle;orthogonalLoop=1;jettySize=auto;html=1;exitX=0.5;exitY=1;exitDx=0;exitDy=0;endArrow=none;endFill=1;strokeWidth=2;fontColor=#000000;strokeColor=#38CD8F;entryX=0.5;entryY=0;entryDx=0;entryDy=0;startArrow=none;" edge="1" parent="1" source="gxGCP2PPDhguCthA1r52-76" target="gxGCP2PPDhguCthA1r52-77">
          <mxGeometry relative="1" as="geometry">
            <mxPoint x="-12705.005" y="-4598" as="targetPoint" />
            <mxPoint x="-12573" y="-4718" as="sourcePoint" />
            <Array as="points" />
          </mxGeometry>
        </mxCell>
        <mxCell id="gxGCP2PPDhguCthA1r52-79" style="edgeStyle=orthogonalEdgeStyle;orthogonalLoop=1;jettySize=auto;html=1;endArrow=block;endFill=1;strokeWidth=2;fontColor=#000000;strokeColor=#38CD8F;startArrow=none;" edge="1" parent="1" source="gxGCP2PPDhguCthA1r52-77">
          <mxGeometry relative="1" as="geometry">
            <mxPoint x="-12573" y="-4599" as="targetPoint" />
            <mxPoint x="-12563" y="-4600.5" as="sourcePoint" />
          </mxGeometry>
        </mxCell>
        <mxCell id="gxGCP2PPDhguCthA1r52-80" value="" style="ellipse;whiteSpace=wrap;html=1;aspect=fixed;strokeColor=none;fillColor=#1720FF;" vertex="1" parent="1">
          <mxGeometry x="-12713" y="-5065" width="16" height="16" as="geometry" />
        </mxCell>
        <mxCell id="gxGCP2PPDhguCthA1r52-81" value="" style="edgeStyle=orthogonalEdgeStyle;rounded=1;orthogonalLoop=1;jettySize=auto;html=1;fontColor=#000000;exitX=1;exitY=0.5;exitDx=0;exitDy=0;strokeWidth=2;endArrow=none;endFill=1;jumpStyle=none;strokeColor=#1720FF;endSize=6;startSize=6;entryX=0;entryY=0.5;entryDx=0;entryDy=0;" edge="1" parent="1" source="gxGCP2PPDhguCthA1r52-84" target="gxGCP2PPDhguCthA1r52-80">
          <mxGeometry relative="1" as="geometry">
            <mxPoint x="-13066" y="-5095" as="sourcePoint" />
            <mxPoint x="-12423" y="-5013" as="targetPoint" />
          </mxGeometry>
        </mxCell>
        <mxCell id="gxGCP2PPDhguCthA1r52-82" value="&lt;p style=&quot;margin: 0px ; font-stretch: normal ; line-height: normal ; font-family: &amp;#34;helvetica neue&amp;#34;&quot;&gt;&lt;br&gt;&lt;/p&gt;" style="edgeLabel;html=1;align=center;verticalAlign=middle;resizable=0;points=[];" vertex="1" connectable="0" parent="gxGCP2PPDhguCthA1r52-81">
          <mxGeometry x="-0.0482" y="1" relative="1" as="geometry">
            <mxPoint as="offset" />
          </mxGeometry>
        </mxCell>
        <mxCell id="gxGCP2PPDhguCthA1r52-83" style="edgeStyle=orthogonalEdgeStyle;rounded=1;orthogonalLoop=1;jettySize=auto;html=1;labelBackgroundColor=#ffffff;endArrow=block;endFill=1;endSize=6;strokeWidth=2;fontFamily=Helvetica;fontSize=11;fontColor=#000000;jumpStyle=arc;entryX=0.5;entryY=0;entryDx=0;entryDy=0;startArrow=none;exitX=0.5;exitY=1;exitDx=0;exitDy=0;strokeColor=#1720FF;startSize=6;" edge="1" parent="1" source="gxGCP2PPDhguCthA1r52-80" target="gxGCP2PPDhguCthA1r52-35">
          <mxGeometry relative="1" as="geometry">
            <Array as="points" />
            <mxPoint x="-12920.5" y="-4586.82" as="sourcePoint" />
            <mxPoint x="-12548.5" y="-5320.75" as="targetPoint" />
          </mxGeometry>
        </mxCell>
        <mxCell id="gxGCP2PPDhguCthA1r52-84" value="" style="ellipse;whiteSpace=wrap;html=1;aspect=fixed;strokeColor=none;fillColor=#1720FF;" vertex="1" parent="1">
          <mxGeometry x="-13104" y="-5065" width="16" height="16" as="geometry" />
        </mxCell>
        <mxCell id="gxGCP2PPDhguCthA1r52-85" value="" style="edgeStyle=orthogonalEdgeStyle;rounded=1;orthogonalLoop=1;jettySize=auto;html=1;fontColor=#000000;exitX=0.5;exitY=1;exitDx=0;exitDy=0;strokeWidth=2;endArrow=none;endFill=1;jumpStyle=none;strokeColor=#1720FF;endSize=6;startSize=6;" edge="1" parent="1" source="gxGCP2PPDhguCthA1r52-5" target="gxGCP2PPDhguCthA1r52-84">
          <mxGeometry relative="1" as="geometry">
            <mxPoint x="-13096" y="-5095" as="sourcePoint" />
            <mxPoint x="-13096" y="-4707.91" as="targetPoint" />
          </mxGeometry>
        </mxCell>
        <mxCell id="gxGCP2PPDhguCthA1r52-86" value="&lt;p style=&quot;margin: 0px ; font-stretch: normal ; line-height: normal ; font-family: &amp;#34;helvetica neue&amp;#34;&quot;&gt;&lt;br&gt;&lt;/p&gt;" style="edgeLabel;html=1;align=center;verticalAlign=middle;resizable=0;points=[];" vertex="1" connectable="0" parent="gxGCP2PPDhguCthA1r52-85">
          <mxGeometry x="-0.0482" y="1" relative="1" as="geometry">
            <mxPoint as="offset" />
          </mxGeometry>
        </mxCell>
        <mxCell id="gxGCP2PPDhguCthA1r52-87" style="edgeStyle=orthogonalEdgeStyle;rounded=1;orthogonalLoop=1;jettySize=auto;html=1;labelBackgroundColor=#ffffff;endArrow=block;endFill=1;endSize=6;strokeWidth=2;fontFamily=Helvetica;fontSize=11;fontColor=#000000;jumpStyle=arc;entryX=0;entryY=0.5;entryDx=0;entryDy=0;startArrow=none;strokeColor=#1720FF;startSize=6;exitX=0.5;exitY=0;exitDx=0;exitDy=0;" edge="1" parent="1" source="gxGCP2PPDhguCthA1r52-57" target="gxGCP2PPDhguCthA1r52-3">
          <mxGeometry relative="1" as="geometry">
            <Array as="points" />
            <mxPoint x="-12949" y="-4444" as="sourcePoint" />
            <mxPoint x="-13058.5" y="-4444" as="targetPoint" />
          </mxGeometry>
        </mxCell>
        <mxCell id="gxGCP2PPDhguCthA1r52-88" value="kafka" style="shape=datastore;whiteSpace=wrap;html=1;fontColor=#FFFFFF;fontFamily=Verdana;fontStyle=1;strokeColor=#1720FF;fillColor=#6E00F1;fontSize=12;" vertex="1" parent="1">
          <mxGeometry x="-12955" y="-4481" width="57" height="50" as="geometry" />
        </mxCell>
        <mxCell id="gxGCP2PPDhguCthA1r52-89" value="" style="edgeStyle=orthogonalEdgeStyle;rounded=1;orthogonalLoop=1;jettySize=auto;html=1;exitX=0;exitY=0.5;exitDx=0;exitDy=0;labelBackgroundColor=#ffffff;endArrow=block;endFill=1;endSize=6;strokeColor=#1720FF;strokeWidth=2;fontFamily=Helvetica;fontSize=11;fontColor=#000000;startSize=6;startArrow=none;startFill=0;entryX=1;entryY=0.3;entryDx=0;entryDy=0;" edge="1" parent="1" source="gxGCP2PPDhguCthA1r52-35" target="gxGCP2PPDhguCthA1r52-88">
          <mxGeometry relative="1" as="geometry">
            <mxPoint x="-13036" y="-4667.91" as="targetPoint" />
            <mxPoint x="-12765" y="-4667.91" as="sourcePoint" />
          </mxGeometry>
        </mxCell>
        <mxCell id="gxGCP2PPDhguCthA1r52-90" value="DWH" style="shape=ext;rounded=1;html=1;whiteSpace=wrap;labelBackgroundColor=none;strokeColor=none;fillColor=#00C991;fontFamily=Verdana;fontStyle=1;flipV=0;fontColor=#FFFFFF;" vertex="1" parent="1">
          <mxGeometry x="-13156" y="-4486" width="120" height="80" as="geometry" />
        </mxCell>
        <mxCell id="gxGCP2PPDhguCthA1r52-91" value="" style="shape=datastore;whiteSpace=wrap;html=1;fontSize=9;fontFamily=Verdana;fontStyle=1;fillColor=#00996E;fontColor=#FFFFFF;strokeColor=#2DA372;" vertex="1" parent="1">
          <mxGeometry x="-13159" y="-4493.999999999999" width="27" height="33" as="geometry" />
        </mxCell>
      </root>
    </mxGraphModel>
  </diagram>
</mxfile>
